<svg width="28" height="25" viewBox="0 0 28 25" fill="none" xmlns="http://www.w3.org/2000/svg">
<path d="M25.0298 2.90936C23.6458 1.39088 21.7468 0.554565 19.6821 0.554565C18.1389 0.554565 16.7255 1.04814 15.4812 2.02146C14.8534 2.51277 14.2845 3.11385 13.7829 3.81542C13.2815 3.11406 12.7124 2.51277 12.0844 2.02146C10.8403 1.04814 9.42697 0.554565 7.88368 0.554565C5.81902 0.554565 3.91978 1.39088 2.53579 2.90936C1.16833 4.4101 0.415039 6.46033 0.415039 8.68266C0.415039 10.97 1.25767 13.0638 3.06675 15.272C4.68511 17.2474 7.01106 19.2526 9.70459 21.5746C10.6243 22.3676 11.6669 23.2664 12.7494 24.2239C13.0353 24.4773 13.4023 24.6167 13.7829 24.6167C14.1633 24.6167 14.5305 24.4773 14.8161 24.2243C15.8986 23.2666 16.9417 22.3674 17.8619 21.574C20.555 19.2524 22.8809 17.2474 24.4993 15.2718C26.3084 13.0638 27.1508 10.97 27.1508 8.68245C27.1508 6.46033 26.3975 4.4101 25.0298 2.90936Z" fill="none" stroke="#000000"/>
</svg>
