<svg width="20" height="21" viewBox="0 0 20 21" fill="none" xmlns="http://www.w3.org/2000/svg">
<path d="M19.4518 18.9852L14.3897 14.0041C15.7153 12.5639 16.5298 10.6592 16.5298 8.56333C16.5292 4.07979 12.8361 0.445679 8.28021 0.445679C3.72428 0.445679 0.03125 4.07979 0.03125 8.56333C0.03125 13.0469 3.72428 16.681 8.28021 16.681C10.2487 16.681 12.0541 16.0001 13.4723 14.8682L18.554 19.869C18.8017 20.1129 19.2036 20.1129 19.4513 19.869C19.6994 19.6251 19.6994 19.2292 19.4518 18.9852ZM8.28021 15.432C4.4254 15.432 1.30047 12.3568 1.30047 8.56333C1.30047 4.76984 4.4254 1.69463 8.28021 1.69463C12.1351 1.69463 15.26 4.76984 15.26 8.56333C15.26 12.3568 12.1351 15.432 8.28021 15.432Z" fill="#AAAAAA"/>
</svg>
